<svg xmlns="http://www.w3.org/2000/svg" width="560" height="380" viewBox="0 0 560 380" font-family="Arial,Helvetica,sans-serif">
<rect width="560" height="380" fill="white"/>
<text x="10" y="24" font-size="18" font-weight="bold" fill="#000">a</text>
<line x1="64" y1="326" x2="430" y2="326" stroke="#000" stroke-width="1.4"/>
<line x1="64" y1="326" x2="64" y2="40" stroke="#000" stroke-width="1.4"/>
<line x1="59" y1="326.0" x2="64" y2="326.0" stroke="#000"/>
<text x="55" y="330.0" font-size="12" text-anchor="end">0.5</text>
<line x1="59" y1="254.5" x2="64" y2="254.5" stroke="#000"/>
<text x="55" y="258.5" font-size="12" text-anchor="end">0.588</text>
<line x1="59" y1="183.0" x2="64" y2="183.0" stroke="#000"/>
<text x="55" y="187.0" font-size="12" text-anchor="end">0.675</text>
<line x1="59" y1="111.5" x2="64" y2="111.5" stroke="#000"/>
<text x="55" y="115.5" font-size="12" text-anchor="end">0.762</text>
<line x1="59" y1="40.0" x2="64" y2="40.0" stroke="#000"/>
<text x="55" y="44.0" font-size="12" text-anchor="end">0.85</text>
<line x1="64.0" y1="326" x2="64.0" y2="331" stroke="#000"/>
<text x="64.0" y="345.0" font-size="12" text-anchor="middle">1</text>
<line x1="155.5" y1="326" x2="155.5" y2="331" stroke="#000"/>
<text x="155.5" y="345.0" font-size="12" text-anchor="middle">2.25</text>
<line x1="247.0" y1="326" x2="247.0" y2="331" stroke="#000"/>
<text x="247.0" y="345.0" font-size="12" text-anchor="middle">3.5</text>
<line x1="338.5" y1="326" x2="338.5" y2="331" stroke="#000"/>
<text x="338.5" y="345.0" font-size="12" text-anchor="middle">4.75</text>
<line x1="430.0" y1="326" x2="430.0" y2="331" stroke="#000"/>
<text x="430.0" y="345.0" font-size="12" text-anchor="middle">6</text>
<text x="247.0" y="368" font-size="13" text-anchor="middle">epoch</text>
<text x="16" y="183.0" font-size="13" text-anchor="middle" transform="rotate(-90 16 183.0)">accuracy</text>
<polyline points="64.0,326.0 137.2,260.6 210.4,227.9 283.6,203.4 356.8,195.3 430.0,187.1" fill="none" stroke="#0072B2" stroke-width="2.2"/>
<circle cx="64.0" cy="326.0" r="3.2" fill="#0072B2"/>
<circle cx="137.2" cy="260.6" r="3.2" fill="#0072B2"/>
<circle cx="210.4" cy="227.9" r="3.2" fill="#0072B2"/>
<circle cx="283.6" cy="203.4" r="3.2" fill="#0072B2"/>
<circle cx="356.8" cy="195.3" r="3.2" fill="#0072B2"/>
<circle cx="430.0" cy="187.1" r="3.2" fill="#0072B2"/>
<line x1="446" y1="48" x2="464" y2="48" stroke="#0072B2" stroke-width="2.2"/>
<text x="468" y="52" font-size="12">baseline</text>
<polyline points="64.0,285.1 137.2,195.3 210.4,154.4 283.6,105.4 356.8,64.5 430.0,40.0" fill="none" stroke="#D55E00" stroke-width="2.2"/>
<circle cx="64.0" cy="285.1" r="3.2" fill="#D55E00"/>
<circle cx="137.2" cy="195.3" r="3.2" fill="#D55E00"/>
<circle cx="210.4" cy="154.4" r="3.2" fill="#D55E00"/>
<circle cx="283.6" cy="105.4" r="3.2" fill="#D55E00"/>
<circle cx="356.8" cy="64.5" r="3.2" fill="#D55E00"/>
<circle cx="430.0" cy="40.0" r="3.2" fill="#D55E00"/>
<line x1="446" y1="66" x2="464" y2="66" stroke="#D55E00" stroke-width="2.2"/>
<text x="468" y="70" font-size="12">ours</text>
</svg>